# xmcd
#
# Track frame offsets: 
#        150
#        19962
#        43634
#        63956
#        84635
#        109269
#        131586
#        152845
#        174355
#        194895
#        215814
#        232152
#        255237
#        282335
#        302128
#
# Disc length: 4301 seconds
#
# Revision: 1
# Processed by: cddbd v1.5.2PL0 Copyright (c) Steve Scherf et al.
# Submitted via: ExactAudioCopy v1.0b2
#
DISCID=de10cb0f
DTITLE=Various Artist - Audiophile Test HQCD 2010
DYEAR=2010
DGENRE=Compilation
TTITLE0=Tokyo Kosei Wind Orchestra - Suite 'The Firebird' ~ Internal D
TTITLE0=ance Of King Kashchei, Final
TTITLE1=Rika Tanaka - Like a Star
TTITLE2=Stefania Rava - The Sweetest Sound
TTITLE3=Lagrimas Brothers - Sabre Dance
TTITLE4=Jazztronik - Festalica!! (Clap Ya Hands!!)
TTITLE5=Karen Aoki - The Paris Match
TTITLE6=Woong San - Vivaldi's Song
TTITLE7=Kei Kobayashi - This Masquerade
TTITLE8=Seiko Niizuma - Memory
TTITLE9=Train Up - Day What A Day
TTITLE10=Herb Ohta Jr. - You Are The Sunshine Of My Life
TTITLE11=Chen Min - Difference
TTITLE12=Hikari Ichihara - Grandfather's Clock
TTITLE13=Isao Saito - Traveler In The North
TTITLE14=Tokyo Kosei Wind Orchestra - Copacabana
EXTD=
EXTT0=
EXTT1=
EXTT2=
EXTT3=
EXTT4=
EXTT5=
EXTT6=
EXTT7=
EXTT8=
EXTT9=
EXTT10=
EXTT11=
EXTT12=
EXTT13=
EXTT14=
PLAYORDER=
